# xmcd
#
# Track frame offsets: 
#        150
#        12811
#        27765
#        44759
#        57616
#        68842
#        91948
#        108008
#        123996
#        138450
#        153162
#        171312
#        183954
#
# Disc length: 2601 seconds
#
# Revision: 0
# Processed by: cddbd v1.5.2PL0 Copyright (c) Steve Scherf et al.
# Submitted via: ExactAudioCopy v0.99pb5
#
DISCID=a80a270d
DTITLE=Demian Band - Devil By My Side
DYEAR=2008
DGENRE=Blues
TTITLE0=Mystery Train
TTITLE1=If You Say You Love Me
TTITLE2=Drown In My Own Tears
TTITLE3=Where You Are?
TTITLE4=Kill The Matador
TTITLE5=Karlsruhe
TTITLE6=Baby, Please Don't Go
TTITLE7=The Sky Is Crying
TTITLE8=Don't Bet With My Money
TTITLE9=Devil By My Side
TTITLE10=Check Out How We Sound
TTITLE11=Demian, Con E
TTITLE12=Rude Mood
EXTD=
EXTT0=
EXTT1=
EXTT2=
EXTT3=
EXTT4=
EXTT5=
EXTT6=
EXTT7=
EXTT8=
EXTT9=
EXTT10=
EXTT11=
EXTT12=
PLAYORDER=
